# Blender v2.79 (sub 0) OBJ File: 'HalfCube.blend'
# www.blender.org
o Cube
v 4.250000 5.000000 -4.250000
v 4.250000 0.000000 -4.250000
v 4.250000 0.000000 4.250000
v -4.250000 0.000000 4.250000
v -4.250000 0.000000 -4.250000
v 4.000000 4.250000 5.000000
v 4.999998 4.250000 4.000001
v 4.250000 5.000000 4.250000
v 5.000000 0.750000 3.999999
v 4.000000 0.750000 4.999999
v 5.000001 4.250000 -4.000000
v 4.000002 4.250000 -5.000000
v 4.000000 0.750000 -5.000000
v 5.000000 0.750000 -4.000001
v -4.000000 4.250000 -5.000000
v -5.000000 4.250000 -4.000000
v -4.250000 5.000000 -4.250000
v -4.999999 0.750000 -4.000001
v -3.999998 0.750000 -5.000001
v -5.000002 4.250000 3.999999
v -4.000000 4.250000 4.999999
v -4.250000 5.000000 4.250000
v -4.000000 0.750000 5.000000
v -5.000001 0.750000 4.000000
vt 0.000000 0.000000
vt 1.000000 0.000000
vt 1.000000 1.000000
vt 0.000000 1.000000
vt 0.000000 0.000000
vt 1.000000 0.000000
vt 1.000000 1.000000
vt 0.000000 1.000000
vt 0.000000 0.000000
vt 1.000000 0.000000
vt 1.000000 1.000000
vt 0.000000 1.000000
vt 0.000000 0.000000
vt 1.000000 0.000000
vt 1.000000 1.000000
vt 0.000000 1.000000
vt 0.000000 0.000000
vt 1.000000 0.000000
vt 1.000000 1.000000
vt 0.000000 1.000000
vt 1.000000 0.000000
vt 1.000000 1.000000
vt 0.000000 1.000000
vt 1.000000 0.000000
vt 0.000000 1.000000
vt 0.000000 0.000000
vt 1.000000 0.000000
vt 1.000000 1.000000
vt 1.000000 0.000000
vt 1.000000 1.000000
vt 0.000000 1.000000
vt 0.000000 0.000000
vt 1.000000 0.000000
vt 1.000000 1.000000
vt 0.000000 1.000000
vt 0.000000 0.000000
vt 1.000000 0.000000
vt 1.000000 1.000000
vt 0.000000 0.000000
vt 1.000000 1.000000
vt 0.000000 1.000000
vt 0.000000 0.000000
vt 1.000000 0.000000
vt 1.000000 1.000000
vt 0.000000 1.000000
vt 0.000000 0.000000
vt 1.000000 1.000000
vt 0.000000 0.000000
vt 1.000000 1.000000
vt 1.000000 1.000000
vt 0.000000 1.000000
vt 1.000000 0.000000
vt 0.000000 1.000000
vt 0.000000 0.000000
vt 1.000000 0.000000
vt 1.000000 1.000000
vt 0.000000 0.000000
vt 1.000000 0.000000
vt 1.000000 1.000000
vt 0.000000 1.000000
vt 0.000000 0.000000
vt 1.000000 0.000000
vt 0.000000 1.000000
vt 0.000000 0.000000
vt 1.000000 0.000000
vt 0.000000 0.000000
vt 0.000000 1.000000
vt 0.000000 0.000000
vt 0.000000 1.000000
vn 1.0000 0.0000 0.0000
vn 0.0000 0.0000 -1.0000
vn 0.0000 1.0000 0.0000
vn 0.0000 -1.0000 0.0000
vn -0.0000 0.7071 0.7071
vn 0.0000 0.7071 -0.7071
vn 0.0000 -0.7071 -0.7071
vn -0.7071 -0.7071 -0.0000
vn 0.7071 -0.7071 0.0000
vn 0.0000 -0.7071 0.7071
vn 0.6396 0.4264 0.6396
vn 0.6396 -0.4264 0.6396
vn 0.7071 -0.0000 0.7071
vn -1.0000 -0.0000 -0.0000
vn 0.6396 0.4264 -0.6396
vn 0.6396 -0.4264 -0.6396
vn 0.7071 -0.0000 -0.7071
vn 0.7071 0.7071 0.0000
vn -0.6396 0.4264 -0.6396
vn -0.6396 -0.4264 -0.6396
vn -0.7071 0.0000 -0.7071
vn -0.0000 -0.0000 1.0000
vn -0.6396 0.4264 0.6396
vn -0.6396 -0.4264 0.6396
vn -0.7071 0.0000 0.7071
vn -0.7071 0.7071 -0.0000
s off
f 14/1/1 11/2/1 7/3/1 9/4/1
f 12/5/2 13/6/2 19/7/2 15/8/2
f 1/9/3 17/10/3 22/11/3 8/12/3
f 2/13/4 3/14/4 4/15/4 5/16/4
f 8/17/5 22/18/5 21/19/5 6/20/5
f 1/9/6 12/21/6 15/22/6 17/23/6
f 2/13/7 5/24/7 19/7/7 13/25/7
f 4/26/8 24/27/8 18/28/8 5/16/8
f 2/13/9 14/29/9 9/30/9 3/31/9
f 3/32/10 10/33/10 23/34/10 4/35/10
f 6/36/11 7/37/11 8/38/11
f 9/39/12 10/33/12 3/40/12
f 6/36/13 10/33/13 9/30/13 7/41/13
f 24/42/14 20/43/14 16/44/14 18/45/14
f 11/46/15 12/21/15 1/47/15
f 13/48/16 14/29/16 2/49/16
f 13/48/17 12/21/17 11/50/17 14/51/17
f 1/9/18 8/52/18 7/3/18 11/53/18
f 15/54/19 16/55/19 17/56/19
f 18/57/20 19/58/20 5/59/20
f 18/57/21 16/55/21 15/22/21 19/60/21
f 10/61/22 6/62/22 21/19/22 23/63/22
f 20/64/23 21/65/23 22/11/23
f 23/66/24 24/27/24 4/15/24
f 20/64/25 24/27/25 23/34/25 21/67/25
f 22/68/26 17/10/26 16/44/26 20/69/26
